# xmcd CD database file
#
# Track frame offsets:
#	150
#	29434
#	54228
#	76709
#	96378
#	121855
#	155343
#	176673
#	200242
#	234552
#	258508
#
# Disc length: 3654 seconds
#
# Revision: 0
# Processed by: cddbd v1.5.2PL0 Copyright (c) Steve Scherf et al.
# Submitted via: CDex 1.70beta2
#
DISCID=8c0e440b
DTITLE=Various Artist - Jazz Lounge IX - Easy Living
DYEAR=2005
DGENRE=Jazz
TTITLE0=Frank Morgan - Easy Living
TTITLE1=Blue Mitchell - Whenn I fall in love
TTITLE2=Elle Fitzgerald - Polka dots and moonbeams
TTITLE3=Freddy Cole - Isn't she lovely
TTITLE4=Benny Goldon - Whisper not
TTITLE5=Miles Davis - Just squessze me
TTITLE6=George Shearing and The Montgomery Brothers - Stranger in paradise
TTITLE7=Gene Ammons - Canadian sunset
TTITLE8=Sonny Pollins - For all we know
TTITLE9=Bobby Timmons - Dat dere
TTITLE10=Chet Baker - My heart stood still
EXTD=YEAR: 2005
EXTT0=
EXTT1=
EXTT2=
EXTT3=
EXTT4=
EXTT5=
EXTT6=
EXTT7=
EXTT8=
EXTT9=
EXTT10=
PLAYORDER=
